<svg width="644" height="114" viewBox="0 0 644 114" fill="none" xmlns="http://www.w3.org/2000/svg">
<g clip-path="url(#clip0_1_3)">
<path d="M89.1875 11.25C96.3904 18.2928 99.7758 26.2266 102 36C102 37.32 102 38.64 102 40C94.74 40 87.48 40 80 40C79.01 37.1847 79.01 37.1847 78 34.3125C75.8692 29.2368 74.1201 26.2556 69.168 23.7656C61.4199 21.0294 54.4149 21.8975 46.8672 24.8281C40.1569 28.247 37.4312 34.113 35 41C31.4357 55.4542 32.6276 69.3296 39.875 82.375C44.1757 87.6877 48.8513 91.5079 55.832 92.3359C62.3129 92.4209 67.8457 92.2813 73 88C76.6325 83.6335 78.1912 79.4264 80 74C87.26 74 94.52 74 102 74C99.3421 86.4036 95.4925 98.0998 85 106C73.1276 113.439 61.7569 115.106 48 113C40.1456 111.193 33.9986 108.373 28 103C27.407 102.51 26.8141 102.02 26.2031 101.516C16.684 93.0074 11.8837 80.3284 10.7007 67.8406C10.5642 64.6162 10.5319 61.4146 10.5625 58.1875C10.5708 57.0504 10.5791 55.9133 10.5876 54.7417C10.9007 39.1092 14.9331 25.5688 25.5625 13.6875C43.7022 -3.18418 69.7271 -2.48674 89.1875 11.25Z" fill="white"/>
<path d="M590 18.3711C590.873 18.3687 591.745 18.3663 592.645 18.3638C594.487 18.3648 596.33 18.3781 598.172 18.4031C600.991 18.4374 603.806 18.4237 606.625 18.4043C608.417 18.4112 610.208 18.4209 612 18.4336C612.842 18.4286 613.684 18.4237 614.551 18.4186C618.397 18.4959 620.376 18.5436 623.547 20.8635C625.302 23.4442 625.34 24.94 625 28C626.204 27.9768 627.408 27.9536 628.648 27.9297C630.224 27.9109 631.8 27.8927 633.375 27.875C634.169 27.8582 634.963 27.8415 635.781 27.8242C637.855 27.8066 639.929 27.8966 642 28C644.474 30.4739 644.286 31.975 644.322 35.3613C644.317 36.389 644.317 36.389 644.313 37.4375C644.329 38.1188 644.345 38.8 644.361 39.502C644.366 44.5103 644.366 44.5103 642.728 46.7007C640.624 48.2827 639.594 48.3517 636.988 48.293C636.231 48.2833 635.474 48.2736 634.693 48.2637C633.908 48.2385 633.122 48.2134 632.313 48.1875C631.117 48.1672 631.117 48.1672 629.897 48.1465C627.931 48.1112 625.965 48.0574 624 48C624 44.7 624 41.4 624 38C609.15 38.33 594.3 38.66 579 39C580.996 46.7086 580.996 46.7086 585.5 51.5C586.088 51.9641 586.676 52.4281 587.281 52.9063C590.86 55.1836 594.225 55.1286 598.36 55.239C613.541 55.6826 625.053 58.5568 635.75 69.75C639.364 74.0409 641.319 78.686 643 84C643.199 84.6136 643.397 85.2272 643.602 85.8594C644.16 88.8576 644 91.9502 644 95C637.73 95 631.46 95 625 95C625.083 97.2275 625.165 99.455 625.25 101.75C625.491 108.267 625.491 108.267 623.538 111.18C619.797 113.862 616.5 113.593 612 113.566C611.127 113.573 610.255 113.579 609.356 113.585C607.513 113.592 605.671 113.589 603.828 113.576C601.009 113.563 598.194 113.597 595.375 113.635C593.583 113.636 591.792 113.634 590 113.629C589.158 113.642 588.317 113.655 587.449 113.669C583.311 113.603 581.616 113.55 578.438 110.711C577 108 577 108 577 104C575.868 104.023 574.736 104.046 573.57 104.07C572.089 104.089 570.607 104.107 569.125 104.125C568.379 104.142 567.632 104.159 566.863 104.176C564.908 104.193 562.953 104.103 561 104C558.441 101.441 558.739 99.7279 558.727 96.2344C558.734 95.497 558.742 94.7597 558.75 94C558.742 93.2627 558.735 92.5253 558.727 91.7656C558.747 86.2533 558.747 86.2533 561 84C563.909 83.8548 566.72 83.8137 569.625 83.875C570.427 83.884 571.229 83.893 572.055 83.9023C574.037 83.9259 576.018 83.9618 578 84C578 87.3 578 90.6 578 94C593.18 94 608.36 94 624 94C620.825 84.1998 620.825 84.1998 613.41 78.3984C609.078 76.6219 605.382 76.5644 600.75 76.5C588.685 76.0718 578.502 73.6977 569.215 65.4063C561.54 57.0833 559 48.1712 559 37C564.94 37 570.88 37 577 37C576.918 34.9581 576.835 32.9162 576.75 30.8125C576.596 26.9891 576.614 24.7054 578.462 21.3311C582.143 17.95 585.161 18.2949 590 18.3711Z" fill="white"/>
<path d="M412 0C417.28 0 422.56 0 428 0C428 24.75 428 49.5 428 75C434.27 75 440.54 75 447 75C447 81.27 447 87.54 447 94C452.61 94 458.22 94 464 94C464 87.73 464 81.46 464 75C470.27 75 476.54 75 483 75C483 50.25 483 25.5 483 0C488.28 0 493.56 0 499 0C503.432 4.43238 503.502 4.79487 503.518 10.6328C503.525 11.2902 503.532 11.9476 503.539 12.6249C503.556 14.7921 503.545 16.9579 503.531 19.125C503.534 20.6343 503.538 22.1436 503.543 23.6528C503.549 26.8136 503.54 29.974 503.521 33.1348C503.499 37.1837 503.512 41.2315 503.536 45.2804C503.55 48.3963 503.546 51.512 503.535 54.6279C503.533 56.1206 503.536 57.6133 503.545 59.106C503.555 61.1937 503.54 63.2796 503.518 65.3672C503.514 66.5543 503.511 67.7413 503.508 68.9644C502.895 72.6279 501.97 73.8239 499 76C496.263 76.2912 493.961 76.3832 491.25 76.25C490.553 76.232 489.855 76.2139 489.137 76.1953C487.424 76.1484 485.712 76.0766 484 76C484.052 77.572 484.052 77.572 484.105 79.1758C484.134 80.5547 484.161 81.9336 484.188 83.3125C484.213 84.0028 484.238 84.6931 484.264 85.4043C484.338 90.5325 484.338 90.5325 482.613 92.918C478.977 95.3568 476.233 95.1021 471.875 95.0625C470.594 95.0535 469.312 95.0445 467.992 95.0352C467.005 95.0236 466.017 95.012 465 95C465.012 96.2156 465.023 97.4312 465.035 98.6836C465.045 100.268 465.054 101.853 465.063 103.438C465.071 104.24 465.079 105.042 465.088 105.869C465.097 107.913 465.052 109.957 465 112C462.957 114.043 458.863 113.185 456.063 113.188C455.321 113.2 454.579 113.212 453.814 113.225C451.875 113.23 449.936 113.122 448 113C446 111 446 111 445.805 107.305C445.818 105.828 445.842 104.351 445.875 102.875C445.884 102.121 445.893 101.367 445.902 100.59C445.926 98.7264 445.962 96.8632 446 95C445.12 95.0348 444.239 95.0696 443.332 95.1055C442.171 95.1325 441.009 95.1596 439.813 95.1875C438.09 95.2397 438.09 95.2397 436.332 95.293C432.421 94.9491 429.794 93.794 427 91C426.927 88.4695 426.908 85.967 426.938 83.4375C426.942 82.7266 426.947 82.0157 426.951 81.2832C426.963 79.5221 426.981 77.761 427 76C426.047 76.058 425.095 76.116 424.113 76.1758C422.232 76.2435 422.232 76.2435 420.313 76.3125C419.071 76.3705 417.83 76.4285 416.551 76.4883C412.003 75.8629 410.846 74.5349 408 71C407.372 67.9268 407.372 67.9268 407.369 64.4531C407.356 63.1483 407.344 61.8434 407.331 60.499C407.343 59.0827 407.357 57.6663 407.371 56.25C407.37 54.7894 407.368 53.3288 407.364 51.8682C407.361 48.8116 407.376 45.7557 407.403 42.6992C407.437 38.7883 407.431 34.8786 407.412 30.9676C407.402 27.9529 407.411 24.9384 407.426 21.9237C407.431 20.4821 407.431 19.0404 407.424 17.5988C407.419 15.5814 407.442 13.5641 407.467 11.5469C407.473 10.4006 407.479 9.25428 407.485 8.07324C408 5 408 5 412 0Z" fill="white"/>
<path d="M120 0C126.6 0 133.2 0 140 0C140.33 14.85 140.66 29.7 141 45C143.31 43.35 145.62 41.7 148 40C155.677 36.7522 164.516 36.7841 172.375 39.5C178.33 42.235 182.699 46.6401 185.072 52.7676C186.001 56.0032 186.242 58.5602 186.227 61.9136C186.227 63.0543 186.227 64.195 186.227 65.3703C186.211 67.1941 186.211 67.1941 186.195 69.0547C186.192 70.3114 186.19 71.5681 186.187 72.8628C186.177 76.187 186.16 79.5109 186.137 82.835C186.117 86.2337 186.108 89.6325 186.098 93.0312C186.076 99.6876 186.041 106.344 186 113C179.4 113 172.8 113 166 113C165.985 111.512 165.971 110.023 165.956 108.49C165.898 102.964 165.821 97.438 165.738 91.9124C165.704 89.5215 165.676 87.1305 165.654 84.7395C165.62 81.3013 165.568 77.8637 165.512 74.4258C165.505 73.3579 165.499 72.29 165.492 71.1898C165.427 64.0825 165.427 64.0825 162 58C159.007 55.6719 155.762 55.5762 152.027 55.6875C148.573 56.2199 146.582 57.7186 144 60C140.394 65.4423 140.529 70.5612 140.488 76.8672C140.47 77.9019 140.452 78.9366 140.434 80.0027C140.38 83.2934 140.346 86.584 140.312 89.875C140.279 92.112 140.245 94.349 140.209 96.5859C140.124 102.057 140.057 107.528 140 113C133.4 113 126.8 113 120 113C120 75.71 120 38.42 120 0Z" fill="white"/>
<path d="M384.937 41.875C390.229 47.327 391.129 53.5899 391.113 60.8918C391.113 62.6331 391.113 62.6331 391.113 64.4095C391.108 65.6524 391.103 66.8952 391.098 68.1758C391.096 69.4561 391.095 70.7364 391.093 72.0555C391.09 75.447 391.08 78.8384 391.069 82.2299C391.058 85.6956 391.054 89.1613 391.049 92.627C391.038 99.418 391.021 106.209 391 113C384.73 113 378.46 113 372 113C371.34 110.36 370.68 107.72 370 105C369.216 105.763 368.432 106.526 367.625 107.312C361.35 112.485 353.536 113.535 345.609 113.289C339.431 112.605 334.482 110.354 330 106C325.394 99.4194 325.467 92.8274 326 85C327.007 79.4383 329.402 75.731 333.891 72.3086C342.986 66.6663 353.694 65.7157 364.09 64.3254C366.213 64.0136 366.213 64.0136 369 63C369.685 60.1422 369.685 60.1422 370 57C368.278 53.7515 368.278 53.7515 365 53C359.576 52.4122 355.409 51.9853 350.875 55.25C348.747 58.0296 348.747 58.0296 348 62C341.4 62 334.8 62 328 62C329.105 53.157 330.691 46.2196 337.875 40.5C351.346 31.5781 371.765 33.4673 384.937 41.875ZM367.844 76.9141C363.724 78.4874 359.477 79.1855 355.156 80.0234C351.655 81.1068 349.658 82.5059 347 85C345.556 87.8886 345.623 89.7965 346 93C347.874 96.0406 347.874 96.0406 351 98C356.458 98.8053 360.429 98.0369 365.234 95.3125C368.274 93.0527 369.984 90.5805 371 87C371.299 83.3051 371.241 79.6966 371 76C369.763 75.935 369.763 75.935 367.844 76.9141Z" fill="white"/>
<path d="M241 37C247.6 37 254.2 37 261 37C261.33 40.3 261.66 43.6 262 47C262.722 46.2369 263.444 45.4737 264.188 44.6875C270.86 38.312 276.637 37.6259 285.605 37.7266C292.326 38.268 297.825 40.2925 302.438 45.3125C308.447 52.7213 308.41 59.9837 308.293 69.1523C308.289 70.4076 308.284 71.6629 308.28 72.9562C308.266 76.2723 308.239 79.5878 308.206 82.9037C308.175 86.2958 308.162 89.6879 308.146 93.0801C308.113 99.7202 308.062 106.36 308 113C301.4 113 294.8 113 288 113C287.985 111.512 287.971 110.023 287.956 108.49C287.898 102.964 287.821 97.438 287.738 91.9124C287.704 89.5215 287.676 87.1305 287.654 84.7395C287.62 81.3013 287.568 77.8637 287.512 74.4258C287.505 73.3579 287.499 72.29 287.492 71.1898C287.427 64.0825 287.427 64.0825 284 58C281.006 55.6716 277.762 55.5793 274.027 55.6836C269.786 56.3456 267.042 58.7533 264.364 61.9578C262.3 66.5615 262.519 70.996 262.488 75.9883C262.47 77.0466 262.452 78.105 262.434 79.1954C262.38 82.5677 262.346 85.9399 262.312 89.3125C262.279 91.6022 262.245 93.8919 262.209 96.1816C262.122 101.788 262.062 107.393 262 113C255.07 113 248.14 113 241 113C241 87.92 241 62.84 241 37Z" fill="white"/>
<path d="M204 37C210.6 37 217.2 37 224 37C224 62.08 224 87.16 224 113C217.4 113 210.8 113 204 113C204 87.92 204 62.84 204 37Z" fill="white"/>
<path d="M521 37C527.6 37 534.2 37 541 37C541.045 46.4662 541.082 55.9323 541.104 65.3986C541.114 69.794 541.128 74.1894 541.151 78.5847C541.173 82.8252 541.185 87.0656 541.19 91.3061C541.193 92.9252 541.201 94.5444 541.211 96.1635C541.226 98.4285 541.228 100.693 541.227 102.958C541.232 104.248 541.236 105.539 541.241 106.868C541 110 541 110 539 113C536.245 113.276 533.749 113.373 531 113.312C530.263 113.316 529.525 113.319 528.766 113.322C523.267 113.267 523.267 113.267 521 111C520.76 107.95 520.76 107.95 520.773 103.98C520.773 103.258 520.772 102.536 520.772 101.792C520.773 99.4002 520.789 97.0088 520.805 94.6172C520.808 92.9609 520.811 91.3047 520.813 89.6485C520.821 85.2853 520.841 80.9222 520.863 76.5591C520.883 72.1084 520.892 67.6577 520.902 63.207C520.924 54.4713 520.959 45.7357 521 37Z" fill="white"/>
<path d="M204 0C210.6 0 217.2 0 224 0C224 6.6 224 13.2 224 20C217.4 20 210.8 20 204 20C204 13.4 204 6.8 204 0Z" fill="white"/>
<path d="M528.361 -0.322266C529.389 -0.317432 529.389 -0.317432 530.438 -0.3125C531.459 -0.33667 531.459 -0.33667 532.502 -0.361328C537.51 -0.366234 537.51 -0.366234 539.701 1.27197C541.283 3.37597 541.352 4.40599 541.293 7.01172C541.282 8.03592 541.282 8.03592 541.27 9.08081C541.243 9.94102 541.216 10.8012 541.188 11.6875C541.126 14.4306 541.064 17.1737 541 20C534.4 20 527.8 20 521 20C520.959 17.0712 520.918 14.1425 520.875 11.125C520.857 10.2035 520.839 9.28196 520.82 8.33252C520.815 7.60662 520.81 6.88071 520.805 6.13281C520.794 5.38918 520.784 4.64556 520.773 3.87939C521.316 -0.615313 524.587 -0.281522 528.361 -0.322266Z" fill="white"/>
</g>
<defs>
<clipPath id="clip0_1_3">
<rect width="644" height="114" fill="white"/>
</clipPath>
</defs>
</svg>
